<svg width="20" height="20" viewBox="0 0 20 20" fill="none" xmlns="http://www.w3.org/2000/svg">
<path fill-rule="evenodd" clip-rule="evenodd" d="M15.0817 3.33325H4.91814C4.04278 3.33325 3.33325 4.04096 3.33325 4.9145V15.0853C3.33325 15.9585 4.04278 16.6666 4.91814 16.6666H15.0817C15.9571 16.6666 16.6666 15.9585 16.6666 15.0853V4.9145C16.6666 4.04096 15.9571 3.33325 15.0817 3.33325ZM10.0153 7.45731C11.4315 7.45731 12.5796 8.60288 12.5796 10.0154C12.5796 11.4283 11.4315 12.5735 10.0153 12.5735C8.59956 12.5735 7.45144 11.4283 7.45144 10.0154C7.45144 8.60288 8.59956 7.45731 10.0153 7.45731ZM15.4166 14.9999C15.4166 15.2297 15.23 15.4166 14.9998 15.4166H4.99991C4.76971 15.4166 4.58314 15.2297 4.58314 14.9999V8.74978H6.24986C6.03274 9.06218 5.95928 9.64514 5.95928 10.0154C5.95928 12.2465 7.7791 14.0619 10.0153 14.0619C12.2519 14.0619 14.0717 12.2465 14.0717 10.0154C14.0717 9.64514 14.019 9.07127 13.7499 8.74978H15.4166V14.9999Z" fill="#030A1B"/>
</svg>
