<svg width="24" height="24" viewBox="0 0 24 24" fill="none" xmlns="http://www.w3.org/2000/svg">
<path d="M12.5 4C7.25273 4 3 7.45488 3 11.7188C3 13.5594 3.79414 15.2441 5.11523 16.5689C4.65137 18.4393 3.1002 20.1055 3.08164 20.124C3 20.2094 2.97773 20.3355 3.02598 20.4469C3.07422 20.5582 3.17812 20.625 3.29688 20.625C5.75723 20.625 7.60156 19.4449 8.51445 18.7176C9.72793 19.174 11.075 19.4375 12.5 19.4375C17.7473 19.4375 22 15.9826 22 11.7188C22 7.45488 17.7473 4 12.5 4ZM7.75 12.9062C7.09316 12.9062 6.5625 12.3756 6.5625 11.7188C6.5625 11.0619 7.09316 10.5312 7.75 10.5312C8.40684 10.5312 8.9375 11.0619 8.9375 11.7188C8.9375 12.3756 8.40684 12.9062 7.75 12.9062ZM12.5 12.9062C11.8432 12.9062 11.3125 12.3756 11.3125 11.7188C11.3125 11.0619 11.8432 10.5312 12.5 10.5312C13.1568 10.5312 13.6875 11.0619 13.6875 11.7188C13.6875 12.3756 13.1568 12.9062 12.5 12.9062ZM17.25 12.9062C16.5932 12.9062 16.0625 12.3756 16.0625 11.7188C16.0625 11.0619 16.5932 10.5312 17.25 10.5312C17.9068 10.5312 18.4375 11.0619 18.4375 11.7188C18.4375 12.3756 17.9068 12.9062 17.25 12.9062Z" fill="white"/>
</svg>
