<svg width="17" height="22" viewBox="0 0 17 22" fill="none" xmlns="http://www.w3.org/2000/svg">
<path d="M16.2106 6.3108V18.2959C16.2106 18.9003 15.6873 19.1886 15.0527 19.639C14.5433 20.0015 13.8949 19.5522 13.8949 18.9594V7.24868C13.8949 7.00437 13.8092 6.77163 13.5313 6.62922C13.2534 6.4868 4.57171 1.92247 4.57171 1.92247C4.43161 1.87037 3.82025 1.4848 3.00511 1.90395C2.2305 2.30226 1.80903 2.7353 1.70135 2.93908L11.1727 8.12866C11.424 8.26065 11.5791 8.46444 11.5791 8.72612V21.2334C11.5763 21.3745 11.535 21.5121 11.4597 21.6315C11.3844 21.7509 11.278 21.8474 11.1519 21.9108C11.032 21.9699 10.9 22.0005 10.7663 21.9999C10.6091 22.0018 10.4544 21.9601 10.3194 21.8795C10.0704 21.7278 1.3181 16.3611 0.740319 16.0126C0.46243 15.8459 0.137068 15.5043 0.130121 15.2507L0.000439679 3.34087C0.000439679 3.11161 -0.0261913 2.70751 0.335064 2.14594C1.1421 0.890813 3.95804 -0.536841 5.38338 0.203038L15.803 5.47714C16.0543 5.60682 16.2106 5.86618 16.2106 6.3108Z" fill="#86909D"/>
</svg>
