<svg width="24" height="22" viewBox="0 0 24 22" fill="none" xmlns="http://www.w3.org/2000/svg">
<path d="M12.3334 19.3331H10.0001V14.1157L17.0309 7.08535C17.6776 6.43869 17.2197 5.33328 16.3051 5.33328H1.02856C0.113983 5.33328 -0.343929 6.43869 0.302731 7.08535L7.3335 14.1157V19.3331H5.00019C4.07978 19.3331 3.33353 20.0794 3.33353 20.9998C3.33353 21.184 3.4827 21.3331 3.66687 21.3331H13.6668C13.8509 21.3331 14.0001 21.184 14.0001 20.9998C14.0001 20.0794 13.2539 19.3331 12.3334 19.3331ZM18.0001 0C15.3913 0 13.1939 1.67498 12.3676 3.99996H14.5568C15.2505 2.81039 16.5263 1.99998 18.0001 1.99998C20.2055 1.99998 22 3.79413 22 5.99994C22 8.20575 20.2055 9.9999 18.0001 9.9999C17.4151 9.9999 16.863 9.86657 16.3617 9.63991L14.8926 11.1091C15.8013 11.6632 16.858 11.9999 18.0001 11.9999C21.3138 11.9999 24 9.31366 24 5.99994C24 2.68622 21.3138 0 18.0001 0Z" fill="#86909D"/>
</svg>
