<svg width="24" height="24" viewBox="0 0 24 24" fill="none" xmlns="http://www.w3.org/2000/svg">
<path d="M17.4 12.4C19.056 12.4 20.388 11.056 20.388 9.4C20.388 7.744 19.056 6.4 17.4 6.4C16.6044 6.4 15.8413 6.71607 15.2787 7.27868C14.7161 7.84129 14.4 8.60435 14.4 9.4C14.4 10.1956 14.7161 10.9587 15.2787 11.5213C15.8413 12.0839 16.6044 12.4 17.4 12.4ZM8.4 11.2C10.392 11.2 11.988 9.592 11.988 7.6C11.988 5.608 10.392 4 8.4 4C6.408 4 4.8 5.608 4.8 7.6C4.8 9.592 6.408 11.2 8.4 11.2ZM17.4 14.8C15.204 14.8 10.8 15.904 10.8 18.1V20.8H24V18.1C24 15.904 19.596 14.8 17.4 14.8ZM8.4 13.6C5.604 13.6 0 15.004 0 17.8V20.8H8.4V18.1C8.4 17.08 8.796 15.292 11.244 13.936C10.2 13.72 9.192 13.6 8.4 13.6Z" fill="#030A1B"/>
</svg>
