<svg width="24" height="24" viewBox="0 0 24 24" fill="none" xmlns="http://www.w3.org/2000/svg">
<path d="M0 4V20.8H24V4H0ZM6 18.4C6 17.4452 5.62072 16.5295 4.94558 15.8544C4.27045 15.1793 3.35478 14.8 2.4 14.8V10C3.35478 10 4.27045 9.62072 4.94558 8.94558C5.62072 8.27045 6 7.35478 6 6.4H18C18 7.35478 18.3793 8.27045 19.0544 8.94558C19.7295 9.62072 20.6452 10 21.6 10V14.8C20.6452 14.8 19.7295 15.1793 19.0544 15.8544C18.3793 16.5295 18 17.4452 18 18.4H6ZM12 8.8C13.32 8.8 14.4 10.36 14.4 12.4C14.4 14.44 13.32 16 12 16C10.68 16 9.6 14.44 9.6 12.4C9.6 10.36 10.68 8.8 12 8.8Z" fill="#030A1B"/>
</svg>
