<svg width="20" height="20" viewBox="0 0 20 20" fill="none" xmlns="http://www.w3.org/2000/svg">
<path fill-rule="evenodd" clip-rule="evenodd" d="M15.5056 8.41202C15.101 8.57967 14.6671 8.66537 14.229 8.66417H13.8853C13.7977 8.66416 13.7109 8.68141 13.63 8.71494C13.5491 8.74847 13.4756 8.79762 13.4136 8.85958L11.9299 10.3433C11.9144 10.3588 11.9021 10.3772 11.8937 10.3974C11.8853 10.4177 11.881 10.4393 11.881 10.4613C11.881 10.4832 11.8853 10.5048 11.8937 10.5251C11.9021 10.5453 11.9144 10.5637 11.9299 10.5792L17.554 16.2033C17.9705 16.6197 18.2045 17.1845 18.2045 17.7734C18.2045 18.3623 17.9706 18.9271 17.5543 19.3435C17.1379 19.76 16.5731 19.994 15.9842 19.994C15.3953 19.994 14.8305 19.7601 14.414 19.3437L14.4103 19.3396L10.6582 15.5242C10.2895 15.1508 10.0833 14.6468 10.0845 14.1221V13.8912C10.084 13.7163 10.0152 13.5484 9.8928 13.4233L9.41822 12.985C9.29551 12.8712 9.13433 12.8079 8.96697 12.8079C8.90973 12.8081 8.85275 12.8155 8.79739 12.83C8.57688 12.8876 8.34989 12.9168 8.12197 12.9167C7.40705 12.9166 6.72135 12.6329 6.2153 12.1279L2.65489 8.5675C1.19114 7.10584 0.284476 5.12251 0.288643 3.39751C0.288643 2.35292 0.625726 1.47001 1.25698 0.844592C1.38225 0.720503 1.55158 0.651097 1.72791 0.651565C1.90424 0.652034 2.0732 0.722339 2.19781 0.847092L9.4178 8.0675C9.43328 8.083 9.45166 8.09529 9.47189 8.10368C9.49213 8.11207 9.51381 8.11638 9.53572 8.11638C9.55762 8.11638 9.57931 8.11207 9.59954 8.10368C9.61977 8.09529 9.63815 8.083 9.65363 8.0675L11.1374 6.58334C11.1994 6.52136 11.2486 6.44777 11.2821 6.36676C11.3156 6.28575 11.3329 6.19893 11.3328 6.11125V5.76834C11.3316 5.33025 11.4173 4.89627 11.5849 4.49153C11.7525 4.08679 11.9988 3.71933 12.3095 3.41042L15.5157 0.204176C15.6462 0.0736525 15.8232 0.000228379 16.0078 9.86526e-06C16.1707 -0.000886482 16.328 0.0593272 16.4486 0.16876C16.5155 0.229424 16.5693 0.303026 16.6068 0.385106C16.6443 0.467185 16.6648 0.556032 16.667 0.646261C16.6692 0.73649 16.653 0.826223 16.6195 0.910021C16.586 0.993818 16.5358 1.06994 16.472 1.13376L13.6249 3.98001C13.4257 4.17917 13.4153 4.51584 13.6145 4.71501C13.7105 4.8109 13.8406 4.86477 13.9763 4.86477C14.112 4.86477 14.2422 4.8109 14.3382 4.71501L17.1828 1.87084C17.3133 1.74024 17.4903 1.6668 17.6749 1.66667C17.8378 1.66578 17.9951 1.72599 18.1157 1.83542C18.1825 1.89609 18.2364 1.96969 18.2739 2.05177C18.3114 2.13385 18.3319 2.2227 18.3341 2.31293C18.3363 2.40316 18.3201 2.49289 18.2866 2.57669C18.2531 2.66048 18.2029 2.7366 18.139 2.80042L15.292 5.6475C15.0928 5.84667 15.082 6.18334 15.2815 6.3825C15.3776 6.4784 15.5077 6.53227 15.6434 6.53227C15.7791 6.53227 15.9093 6.4784 16.0053 6.3825L18.8649 3.52501C18.9287 3.46112 19.0049 3.41087 19.0887 3.37731C19.1725 3.34374 19.2623 3.32756 19.3526 3.32974C19.4429 3.33192 19.5318 3.35243 19.6139 3.39C19.696 3.42758 19.7696 3.48145 19.8303 3.54834C20.072 3.81459 20.0486 4.22751 19.7949 4.48126L16.5865 7.6875C16.2777 7.99812 15.9103 8.24438 15.5056 8.41202ZM5.27374 13.0729C6.03127 13.8249 7.05472 14.2478 8.12208 14.25C8.26366 14.2492 8.4051 14.241 8.54583 14.2254C8.5717 14.2224 8.59791 14.2247 8.62288 14.2321C8.64785 14.2395 8.67106 14.2519 8.69111 14.2685C8.71117 14.2852 8.72764 14.3057 8.73955 14.3288C8.75146 14.352 8.75856 14.3773 8.76041 14.4033V14.4142C8.76306 14.4424 8.75951 14.471 8.75001 14.4977C8.74051 14.5245 8.72529 14.5489 8.70541 14.5692L3.98208 19.315C3.76577 19.5328 3.50841 19.7054 3.22489 19.823C2.94137 19.9406 2.63734 20.0007 2.33041 20C1.43791 20 0.622082 19.5 0.201666 18.6392C0.177809 18.5905 0.157073 18.5404 0.139583 18.4892C-0.172917 17.5792 0.0524994 16.65 0.683749 16.0187L4.22541 12.4954C4.2879 12.4331 4.37256 12.3981 4.46083 12.3981C4.54909 12.3981 4.63376 12.4331 4.69625 12.4954L5.27374 13.0729Z" fill="#030A1B"/>
</svg>
