<svg width="18" height="18" viewBox="0 0 18 18" fill="none" xmlns="http://www.w3.org/2000/svg">
<path fill-rule="evenodd" clip-rule="evenodd" d="M15.0714 3.64272C15.0714 3.05098 14.5917 2.57129 14 2.57129H3.28572C2.69399 2.57129 2.21429 3.05098 2.21429 3.64272C2.21429 4.23445 2.69399 4.71415 3.28572 4.71415H14C14.5917 4.71415 15.0714 4.23445 15.0714 3.64272ZM7.03572 8.64272C7.03572 8.05098 7.51542 7.57129 8.10715 7.57129H14C14.5917 7.57129 15.0714 8.05098 15.0714 8.64272C15.0714 9.23445 14.5917 9.71415 14 9.71415H8.10715C7.51542 9.71415 7.03572 9.23445 7.03572 8.64272ZM2.21429 13.6427C2.21429 13.051 2.69399 12.5713 3.28572 12.5713H10.25C10.8417 12.5713 11.3214 13.051 11.3214 13.6427C11.3214 14.2345 10.8417 14.7141 10.25 14.7141H3.28572C2.69399 14.7141 2.21429 14.2345 2.21429 13.6427Z" fill="#030A1B"/>
</svg>
