<svg width="20" height="20" viewBox="0 0 20 20" fill="none" xmlns="http://www.w3.org/2000/svg">
<path fill-rule="evenodd" clip-rule="evenodd" d="M16.7572 6.39794C16.8569 6.06577 16.7572 5.83325 16.2922 5.83325H14.7421C14.3435 5.83325 14.1663 6.04363 14.0666 6.27615C14.0666 6.27615 13.2805 8.20274 12.1622 9.44285C11.7968 9.80824 11.6418 9.91897 11.4425 9.91897C11.3428 9.91897 11.1989 9.80824 11.1989 9.47607V6.39794C11.1989 5.99934 11.0882 5.83325 10.756 5.83325H8.32008C8.07648 5.83325 7.92147 6.02148 7.92147 6.18757C7.92147 6.56403 8.47509 6.65261 8.54152 7.69341V9.97433C8.54152 10.4726 8.45294 10.5612 8.25364 10.5612C7.73324 10.5612 6.44884 8.63457 5.69592 6.42009C5.5409 6.01041 5.39696 5.83325 4.99836 5.83325H3.44822C3.00533 5.83325 2.91675 6.04363 2.91675 6.27615C2.91675 6.68583 3.43715 8.72315 5.36375 11.4137C6.64814 13.2518 8.45294 14.2483 10.0917 14.2483C11.0771 14.2483 11.1989 14.0268 11.1989 13.6504V12.2552C11.1989 11.8123 11.2875 11.7238 11.6086 11.7238C11.8411 11.7238 12.2286 11.8345 13.1476 12.7203C14.1995 13.7722 14.3767 14.2483 14.9635 14.2483H16.5136C16.9565 14.2483 17.178 14.0268 17.0451 13.595C16.9012 13.1632 16.4029 12.532 15.7386 11.7791C15.3732 11.3473 14.8306 10.8933 14.6756 10.6608C14.4431 10.3619 14.5095 10.229 14.6756 9.97433C14.6756 9.96325 16.569 7.30588 16.7572 6.39794Z" fill="#030A1B"/>
</svg>
