<svg width="24" height="24" viewBox="0 0 24 24" fill="none" xmlns="http://www.w3.org/2000/svg">
<path d="M20.2106 7.3108V19.2959C20.2106 19.9003 19.6873 20.1886 19.0527 20.639C18.5433 21.0015 17.8949 20.5522 17.8949 19.9594V8.24868C17.8949 8.00437 17.8092 7.77163 17.5313 7.62922C17.2534 7.4868 8.57171 2.92247 8.57171 2.92247C8.43161 2.87037 7.82025 2.4848 7.00511 2.90395C6.2305 3.30226 5.80903 3.7353 5.70135 3.93908L15.1727 9.12866C15.424 9.26065 15.5791 9.46444 15.5791 9.72612V22.2334C15.5763 22.3745 15.535 22.5121 15.4597 22.6315C15.3844 22.7509 15.278 22.8474 15.1519 22.9108C15.032 22.9699 14.9 23.0005 14.7663 22.9999C14.6091 23.0018 14.4544 22.9601 14.3194 22.8795C14.0704 22.7278 5.3181 17.3611 4.74032 17.0126C4.46243 16.8459 4.13707 16.5043 4.13012 16.2507L4.00044 4.34087C4.00044 4.11161 3.97381 3.70751 4.33506 3.14594C5.1421 1.89081 7.95804 0.463159 9.38338 1.20304L19.803 6.47714C20.0543 6.60682 20.2106 6.86618 20.2106 7.3108Z" fill="#86909D"/>
</svg>
