<svg width="24" height="24" viewBox="0 0 24 24" fill="none" xmlns="http://www.w3.org/2000/svg">
<path d="M12.3334 20.3331H10.0001V15.1157L17.0309 8.08535C17.6776 7.43869 17.2197 6.33328 16.3051 6.33328H1.02856C0.113983 6.33328 -0.343929 7.43869 0.302731 8.08535L7.3335 15.1157V20.3331H5.00019C4.07978 20.3331 3.33353 21.0794 3.33353 21.9998C3.33353 22.184 3.4827 22.3331 3.66687 22.3331H13.6668C13.8509 22.3331 14.0001 22.184 14.0001 21.9998C14.0001 21.0794 13.2539 20.3331 12.3334 20.3331ZM18.0001 1C15.3913 1 13.1939 2.67498 12.3676 4.99996H14.5568C15.2505 3.81039 16.5263 2.99998 18.0001 2.99998C20.2055 2.99998 22 4.79413 22 6.99994C22 9.20575 20.2055 10.9999 18.0001 10.9999C17.4151 10.9999 16.863 10.8666 16.3617 10.6399L14.8926 12.1091C15.8013 12.6632 16.858 12.9999 18.0001 12.9999C21.3138 12.9999 24 10.3137 24 6.99994C24 3.68622 21.3138 1 18.0001 1Z" fill="#86909D"/>
</svg>
