<svg width="179" height="72" viewBox="0 0 179 72" fill="none" xmlns="http://www.w3.org/2000/svg">
<path d="M31.1823 18.1072C31.1823 18.1072 31.228 15.7759 30.9538 14.6789C30.5881 13.0333 29.9938 11.3877 28.9882 10.0164C27.8911 8.46221 26.3827 7.22802 24.7828 6.17668C23.4115 5.30817 21.9031 4.62252 20.3489 4.30254C18.6119 3.93686 16.7378 3.93686 14.955 4.30254C13.218 4.66823 11.5267 5.3996 10.0183 6.31381C8.82981 7.04518 7.73276 8.05081 6.81854 9.14787C5.90433 10.1992 5.17296 11.3877 4.62443 12.6676C4.16733 13.7189 3.89306 14.8617 3.66451 16.0045C3.48167 16.9187 3.34454 17.8329 3.34454 18.7471C3.34454 19.3413 3.52738 19.9356 3.66451 20.5298C3.75593 21.0326 4.07591 21.5355 3.98449 21.9926C3.80164 22.9982 2.79601 23.6839 2.3389 24.5524C1.42469 26.2894 0.464766 28.0721 0.144792 30.0376C-0.129472 31.7289 0.00765974 33.5116 0.373345 35.2029C0.830451 37.2599 1.65324 39.2255 2.79601 40.9625C3.89306 42.6538 5.3558 44.1622 7.00139 45.3507C8.55555 46.4478 10.384 47.2248 12.2124 47.6819C13.9951 48.139 15.915 48.1848 17.7434 48.0019C19.4347 47.8191 21.0346 47.2248 22.5887 46.5849C23.5486 46.1735 24.4629 45.7164 25.3314 45.1221C26.1541 44.5279 27.6169 43.1109 27.6169 43.1109C27.6169 43.1109 28.5768 44.4365 29.171 44.985C30.2224 45.8992 31.4566 46.6763 32.7822 47.1791C34.1535 47.6819 35.6162 47.8191 37.079 47.8648C38.3132 47.9105 39.5931 47.8648 40.8273 47.6362C41.9243 47.4077 43.9356 46.5392 43.9356 46.5392L44.2556 46.402C44.2556 46.402 45.1698 46.9506 45.6726 47.1791C46.1297 47.4077 46.6325 47.6362 47.1353 47.7276C48.2324 47.9562 49.3751 47.7734 50.4722 47.8191C52.2092 47.8648 55.6832 47.9105 55.6832 47.9105L42.0157 50.7446L44.4384 58.0125C44.4384 58.0125 45.7183 57.784 46.3125 57.9211C46.9068 58.0583 47.7753 58.2868 48.2781 58.7896C48.8723 59.3382 49.1923 60.1609 49.2837 60.9837C49.3751 61.5323 49.2837 62.1265 49.0552 62.6293C48.8266 63.1321 48.4609 63.5892 48.0495 63.9549C47.7753 64.1835 47.501 64.4577 47.181 64.5949C46.9068 64.732 46.3125 64.732 46.3125 64.732L49.0552 71.9086C49.0552 71.9086 51.9807 71.2686 53.4434 70.9487C56.5517 70.3544 59.66 69.7602 62.8141 69.3031C65.6938 68.8917 68.5736 68.4803 71.4991 68.206C74.4246 67.9318 77.3958 67.7032 80.3213 67.5661C83.3382 67.4289 86.3551 67.2918 89.372 67.3375C93.4402 67.3832 97.5084 67.5661 101.577 67.7946C104.502 67.9775 107.428 68.2517 110.307 68.5717C113.416 68.9374 116.524 69.3488 119.587 69.8973C121.415 70.2173 123.244 70.7201 125.072 71.1315C126.215 71.4058 128.409 72 128.409 72L130.694 64.8234C130.694 64.8234 129.917 64.3206 129.597 63.9549C129.094 63.3607 128.683 62.675 128.5 61.9437C128.363 61.3037 128.363 60.6181 128.592 59.9781C128.775 59.3382 129.186 58.7439 129.689 58.3325C130.1 58.0125 130.649 57.784 131.151 57.6926C131.609 57.6011 132.066 57.6926 132.477 57.784C132.66 57.8297 132.934 57.9211 132.934 57.9211L135.22 50.7446C135.22 50.7446 131.837 49.9218 130.146 49.5561C127.815 49.0533 123.106 48.139 123.106 48.139L121.644 47.9105C121.644 47.9105 123.015 47.5448 123.701 47.2705C124.295 47.042 124.889 46.722 125.392 46.4478C125.483 46.402 125.712 46.3106 125.712 46.3106C125.712 46.3106 126.489 46.9506 126.946 47.1791C127.769 47.5448 128.637 47.6819 129.506 47.8191C130.923 48.0476 132.386 48.1848 133.803 48.0476C135.54 47.9105 137.322 47.5905 138.968 46.9506C140.294 46.4478 141.528 45.7164 142.625 44.8479C143.493 44.1622 144.179 43.2023 144.91 42.3338C145.139 42.0595 145.55 41.4653 145.55 41.4653C145.55 41.4653 146.282 42.4709 146.739 42.928C147.379 43.6594 148.064 44.4365 148.841 45.0307C149.71 45.7164 150.716 46.3106 151.721 46.8134C152.498 47.2248 153.367 47.5448 154.235 47.7734C155.332 48.0476 156.475 48.1848 157.572 48.2305C158.806 48.2762 160.086 48.3219 161.32 48.0933C162.555 47.8648 163.789 47.362 164.932 46.7677C165.8 46.3106 167.263 45.0307 167.263 45.0307C167.263 45.0307 168.36 45.2593 168.908 45.2593C170.097 45.2593 171.331 45.0764 172.52 44.8022C174.119 44.3908 177.228 43.0652 177.228 43.0652L178.005 42.6538L175.262 25.1009L172.931 26.4265C172.931 26.4265 172.154 24.5524 171.605 23.6839C171.057 22.8611 170.325 22.2211 169.731 21.3983C169.548 21.1241 169.183 20.6212 169.183 20.6212C169.183 20.6212 169.914 17.8329 170.188 16.4159C170.508 14.7703 170.965 11.4791 170.965 11.4791L155.744 7.86797C155.744 7.86797 154.555 6.40523 153.778 5.8567C152.955 5.21675 152.041 4.71394 151.036 4.39396C150.076 4.07399 149.07 3.89114 148.064 3.93686C146.967 3.98257 145.87 4.25683 144.865 4.62252C143.95 4.94249 143.082 5.3996 142.351 6.03955C141.391 6.90805 140.659 8.0051 140.156 9.14787C139.745 10.0621 139.608 11.1134 139.517 12.1191C139.471 12.9419 139.517 13.8104 139.654 14.6331C139.791 15.2731 140.294 16.5073 140.294 16.5073C140.294 16.5073 139.014 15.7759 138.328 15.5474C137.094 15.1817 135.814 14.9988 134.488 14.9074C133.3 14.8617 132.066 14.8617 130.877 15.136C129.049 15.5474 127.266 16.2787 125.666 17.2387C124.569 17.8786 123.655 18.8385 122.786 19.7527C122.101 20.4384 120.821 22.0383 120.821 22.0383L119.495 21.1698C119.495 21.1698 120.912 19.3871 121.461 18.3357C122.238 16.8273 123.015 15.1817 123.244 13.4904C123.518 11.5705 123.518 9.55926 122.924 7.73084C122.466 6.17668 121.552 4.75965 120.409 3.57117C119.312 2.4284 117.941 1.51419 116.524 0.919953C115.061 0.325715 113.416 0.0514512 111.816 0.00574056C110.262 -0.0399701 108.708 0.188583 107.199 0.64569C106.011 1.01137 104.822 1.51419 103.771 2.19985C102.628 2.93122 101.622 3.84543 100.708 4.85107C100.16 5.44531 99.3826 6.86234 99.3826 6.86234L98.9255 7.63942C98.9255 7.63942 98.2398 6.49665 97.9198 5.90241C97.417 4.94249 96.8228 4.02828 96.5942 3.02264C96.5028 2.51983 96.5942 1.46848 96.5942 1.46848L81.6012 6.63378C81.6012 6.63378 81.8754 7.91368 82.0583 8.50792C82.5154 9.97066 83.0182 11.3877 83.6124 12.8047C83.9781 13.6732 84.938 15.3188 84.938 15.3188C84.938 15.3188 83.1096 15.8673 82.2868 16.3244C81.2812 16.873 80.4127 17.65 79.5442 18.4271C79.0871 18.8385 78.6757 19.3413 78.31 19.8442C78.0357 20.2556 77.6243 21.0783 77.6243 21.0783C77.6243 21.0783 76.4358 19.3871 75.6588 18.6557C74.5617 17.6043 73.3732 16.5987 72.0019 16.0045C70.402 15.3188 68.5736 15.1817 66.8366 15.136C64.8711 15.136 61.0771 16.0045 61.0771 16.0045L50.1522 18.6557C50.1522 18.6557 48.7809 17.65 48.0495 17.2387C46.4954 16.4159 44.9412 15.5474 43.2042 15.2274C41.4215 14.8617 39.5931 15.0445 37.8104 15.2274C36.5305 15.3645 35.2506 15.5931 34.0621 16.0959C33.0564 16.5987 31.1823 18.1072 31.1823 18.1072Z" fill="#299D9A"/>
<path d="M133.666 25.5581C134.031 25.5581 134.443 25.6038 134.763 25.6952C135.311 25.878 135.86 26.1523 136.317 26.518C136.82 26.9294 137.185 27.5236 137.505 28.0721C137.78 28.6664 137.962 29.3063 138.008 30.0377C138.1 30.8605 138.1 31.6833 138.008 32.4604C137.917 33.2374 137.734 34.0145 137.368 34.7002C137.048 35.3401 136.591 35.9344 136.088 36.3915C135.586 36.8486 134.946 37.26 134.306 37.4885C133.803 37.6714 133.209 37.7171 132.66 37.6714C131.974 37.6257 131.334 37.3971 130.74 37.0771C130.192 36.7572 129.78 36.3001 129.415 35.7972C129.049 35.2487 128.775 34.6088 128.592 34.0145C128.363 33.2831 128.226 32.5061 128.272 31.729C128.318 31.0433 128.5 30.3577 128.775 29.672C129.049 28.9864 129.323 28.3007 129.78 27.7522C130.329 27.0665 130.832 26.5637 131.517 26.1523C132.066 25.8323 132.706 25.6038 133.3 25.5581C133.437 25.5581 133.529 25.5581 133.666 25.5581ZM158.304 14.2218C158.304 14.2218 158.212 14.9989 158.121 15.3646C157.847 16.6902 157.435 17.9701 156.978 19.2043C156.521 20.5299 156.064 21.8555 155.515 23.0897C155.013 24.1867 154.464 25.2838 153.824 26.3351C153.641 26.6551 153.184 27.2036 153.184 27.2036L156.338 30.312L156.658 30.4948C156.658 30.4948 157.938 29.3977 158.532 28.8035C159.127 28.2093 160.178 26.8837 160.178 26.8837C160.178 26.8837 161.092 28.0721 161.412 28.7121C161.869 29.4892 162.281 30.312 162.509 31.2262C162.738 32.0947 162.921 33.0089 162.783 33.8774C162.692 34.563 162.418 35.2944 162.006 35.8429C161.641 36.3915 161.184 36.8486 160.589 37.1686C159.904 37.4885 159.081 37.58 158.304 37.5342C157.572 37.4885 156.841 37.26 156.201 36.94C155.333 36.5286 154.555 35.9344 153.87 35.2944C153.093 34.563 152.453 33.7403 151.904 32.8718C151.539 32.3232 151.036 31.0433 151.036 31.0433L150.853 30.2205L146.602 32.7346C146.602 32.7346 146.648 33.2831 146.693 33.5117C146.922 34.4259 147.333 35.2944 147.79 36.1172C148.385 37.1686 149.07 38.1285 149.893 38.997C150.579 39.7284 151.31 40.3683 152.179 40.9168C153.047 41.5111 154.007 41.9682 155.013 42.3339C155.835 42.6538 156.658 42.9281 157.527 43.0195C158.715 43.1567 159.995 43.1566 161.138 42.8367C162.189 42.5167 163.103 41.8768 164.018 41.2368C164.612 40.8254 165.663 39.8198 165.663 39.8198C165.663 39.8198 166.349 39.8655 166.669 39.8655C167.446 39.9112 168.177 40.0026 168.954 39.9112C169.777 39.8655 171.331 39.4541 171.331 39.4541L171.971 39.3627L171.24 33.8774L171.011 33.7403L169.549 34.2431L168.452 34.4716C168.452 34.4716 168.68 33.4203 168.68 32.8718C168.68 31.5919 168.543 30.3577 168.177 29.1235C167.903 28.1636 167.446 27.2493 166.943 26.3808C166.486 25.6038 165.892 24.8724 165.297 24.1867C164.795 23.5925 164.246 23.044 163.698 22.4954C163.423 22.2212 162.829 21.8098 162.829 21.8098C162.829 21.8098 163.469 20.7127 163.743 20.1185C164.109 19.25 164.429 18.3815 164.703 17.4673C164.886 16.9187 165.115 15.776 165.115 15.776L163.652 15.456L158.304 14.2218ZM111.633 10.245C111.862 10.245 112.09 10.245 112.273 10.3364C112.547 10.4278 112.73 10.7021 112.822 10.9306C113.005 11.342 113.005 11.8449 112.959 12.302C112.913 12.7134 112.822 13.1705 112.593 13.5362C112.319 14.039 111.907 14.4047 111.496 14.7703C110.993 15.2274 110.399 15.5474 109.805 15.8674C108.936 16.3245 107.108 16.9187 107.108 16.9187L106.102 17.2387L106.148 16.873C106.148 16.873 106.834 14.8161 107.336 13.8561C107.839 12.9419 108.342 11.9363 109.119 11.2506C109.622 10.7935 110.262 10.4735 110.902 10.3364C111.176 10.2907 111.405 10.245 111.633 10.245ZM17.4692 9.51362C17.0121 9.51362 16.555 9.51362 16.0979 9.60504C14.9095 9.78788 13.8124 10.2907 12.8068 10.8849C12.1211 11.2963 11.5269 11.8449 11.024 12.4848C10.4755 13.1248 10.0641 13.8104 9.69844 14.5418C9.33275 15.2732 9.1042 16.0502 8.92136 16.8273C8.78423 17.3758 8.73852 17.9701 8.73852 18.5186C8.73852 19.0671 8.78423 19.6157 8.92136 20.1642C9.1042 20.987 9.28704 21.8555 9.69844 22.5869C10.0641 23.2268 10.5669 23.7753 11.1155 24.2782C11.8011 24.9181 12.6239 25.4209 13.4467 25.878C14.2238 26.3351 15.0923 26.6094 15.8694 26.9751C16.7836 27.3865 17.7435 27.7522 18.6577 28.255C19.1605 28.575 19.7091 28.8492 20.1662 29.2606C20.4862 29.5806 20.7604 29.9463 20.9433 30.3577C21.1261 30.8148 21.2632 31.3176 21.2632 31.8204C21.2632 32.4146 21.1718 32.9632 20.9433 33.5117C20.7147 34.1059 20.349 34.7002 19.8919 35.1573C19.4805 35.6144 18.9777 35.9801 18.4292 36.2543C17.9721 36.4829 17.4692 36.5743 16.9664 36.62C16.3722 36.6657 15.7322 36.6657 15.138 36.5286C14.3152 36.3458 13.5381 35.9801 12.8982 35.4316C12.3039 34.883 11.7554 34.1974 11.5269 33.4203C11.2983 32.6889 11.2983 31.9118 11.4354 31.1805C11.5269 30.7234 11.8011 30.312 12.0297 29.9463C12.1211 29.7634 12.4411 29.4435 12.4411 29.4435L6.9558 27.3408C6.9558 27.3408 6.40727 28.1636 6.22443 28.6207C5.85875 29.6263 5.58448 30.8148 5.53877 31.7747C5.49306 32.7346 5.58448 33.7403 5.81304 34.6545C6.04159 35.6144 6.45298 36.4829 6.91009 37.3514C7.41291 38.2656 8.00715 39.1798 8.73852 39.9112C9.24133 40.4597 9.78986 40.8711 10.4298 41.2825C10.8869 41.5568 11.344 41.831 11.8011 42.0139C12.7153 42.3796 13.721 42.6538 14.7266 42.7453C15.7322 42.8367 16.7379 42.791 17.6978 42.6081C18.932 42.3796 20.1662 41.9682 21.3089 41.3739C22.406 40.7797 23.3659 40.1397 24.2801 39.1798C25.0115 38.4485 25.6972 37.5799 26.2 36.6657C26.6571 35.7515 26.9314 34.7459 27.1142 33.786C27.2513 33.0546 27.3427 32.2775 27.3427 31.5004C27.3427 30.6319 27.2513 29.8091 27.0228 28.9863C26.7028 28.0264 26.1543 27.1122 25.56 26.2894C25.1486 25.6952 24.6458 25.1009 24.0516 24.5981C23.0459 23.821 21.8118 23.3182 20.669 22.7697C19.4348 22.1755 18.1092 21.9012 16.9207 21.2613C16.1436 20.8041 15.2751 20.347 14.818 19.57C14.5438 19.1129 14.4066 18.61 14.4523 18.0615C14.4981 17.4673 14.6809 16.873 15.0009 16.4159C15.3666 15.9588 15.9151 15.7303 16.4179 15.5017C16.7836 15.3646 17.1493 15.2732 17.515 15.2732C17.9721 15.2732 18.4292 15.3646 18.7949 15.5931C19.1605 15.8217 19.4348 16.2331 19.6634 16.5988C19.8462 16.9645 19.8919 17.3758 19.9833 17.7872C20.029 18.0615 20.0748 18.5643 20.0748 18.5643L25.6972 17.6044C25.6972 17.6044 25.6515 16.2788 25.4686 15.6388C25.2401 14.8618 24.9658 14.039 24.5087 13.3533C23.8687 12.3934 23.0459 11.4792 22.086 10.7935C21.4004 10.2907 20.5776 9.97072 19.7548 9.78788C19.0234 9.65075 18.2463 9.51362 17.4692 9.51362ZM148.247 9.28506C148.019 9.28506 147.745 9.33077 147.516 9.37648C147.059 9.46791 146.602 9.74217 146.236 10.0164C145.825 10.3364 145.505 10.7478 145.276 11.1592C145.002 11.6163 144.819 12.1648 144.773 12.6677C144.728 13.079 144.773 13.4904 144.911 13.9018C145.002 14.2675 145.23 14.6332 145.413 14.9075C145.55 15.0903 145.688 15.1817 145.916 15.4103C145.962 15.456 146.099 15.5931 146.099 15.5931C146.099 15.5931 145.87 17.0102 145.688 17.6958C145.55 18.1986 145.413 18.7472 145.185 19.2043C145.139 19.2957 145.048 19.4328 145.048 19.4328C145.048 19.4328 146.145 20.347 146.648 20.8041C147.105 21.2155 147.927 22.084 147.927 22.084L148.156 22.3126C148.156 22.3126 149.436 20.3927 149.893 19.4328C150.396 18.3358 150.853 17.1473 151.173 16.0045C151.401 15.136 151.63 14.2218 151.676 13.3076C151.721 12.7591 151.813 12.2105 151.63 11.662C151.401 10.9764 150.99 10.3364 150.487 9.8793C150.076 9.55933 149.573 9.33077 149.07 9.23935C148.75 9.33077 148.522 9.28506 148.247 9.28506ZM111.862 5.39966C111.679 5.39966 111.542 5.39966 111.359 5.39966C111.13 5.39966 110.902 5.44537 110.673 5.44537C109.713 5.53679 108.753 5.81105 107.931 6.26816C107.108 6.67956 106.376 7.22808 105.691 7.86803C105.005 8.50798 104.411 9.28506 103.908 10.0621C103.405 10.7478 102.994 11.4792 102.628 12.2563C102.354 12.8505 102.171 13.5362 101.988 14.1761C101.805 14.7703 101.531 15.9588 101.531 15.9588L101.394 16.9187C101.394 16.9187 100.343 16.5988 99.8398 16.3702C98.8799 15.9131 97.9657 15.3189 97.1886 14.5875C96.5487 13.9933 95.863 13.1248 95.3145 12.3477C94.8574 11.7534 94.4917 11.1135 94.1717 10.4278C93.8974 9.8793 93.4861 8.64511 93.4861 8.64511L88.6864 10.1993C88.6864 10.1993 89.0521 11.342 89.2807 11.8906C89.6464 12.7134 90.0578 13.5362 90.5606 14.3132C90.972 14.9532 91.4748 15.5474 91.9776 16.1417C92.4347 16.6902 92.8918 17.2387 93.4403 17.7415C94.0346 18.3358 94.6745 18.93 95.3145 19.4785C96.0001 20.0271 96.6858 20.5756 97.4629 20.9413C98.1942 21.307 99.7027 21.7641 99.7027 21.7641L100.388 21.9469C100.388 21.9469 100.206 25.0552 100.114 26.6094C100.068 27.7064 100.023 28.8035 99.977 29.9463C99.977 30.6776 100.16 31.409 99.977 32.0947C99.8398 32.6889 99.5199 33.2831 99.1542 33.786C98.6056 34.5173 97.8743 35.0659 97.1886 35.6144C96.5487 36.1172 95.9087 36.62 95.1773 36.9857C94.3546 37.3514 93.4403 37.6257 92.5261 37.7171C91.8405 37.8085 91.1548 37.7628 90.4691 37.6257C89.6921 37.4885 88.915 37.26 88.2293 36.8486C87.6351 36.4829 87.1323 35.9801 86.7666 35.4316C86.2638 34.7459 85.8067 33.9688 85.6238 33.146C85.3496 32.0033 85.3496 30.8148 85.5324 29.672C85.6695 28.9406 85.8981 28.2093 86.3095 27.615C86.858 26.8379 87.6351 26.2437 88.4122 25.8323C88.8236 25.6038 89.235 25.5123 89.6921 25.4666C90.1492 25.4209 90.652 25.4666 91.1091 25.6495C91.4748 25.7866 91.7948 26.0609 92.069 26.3351C92.4347 26.7008 92.8918 27.5236 92.8918 27.5236L93.1661 28.0721L97.2343 24.9638C97.2343 24.9638 96.9144 24.2324 96.6858 23.8668C96.1373 23.1354 95.4973 22.4954 94.8117 21.9469C94.1717 21.4441 93.4861 20.987 92.709 20.7127C91.9319 20.3927 91.0634 20.2556 90.2406 20.2099C89.235 20.1642 88.2293 20.2099 87.2694 20.4385C86.4009 20.667 85.5324 20.987 84.801 21.4441C84.0239 21.9012 83.2926 22.4954 82.6983 23.1811C82.0584 23.9125 81.5099 24.8267 81.0985 25.6952C80.6871 26.5637 80.4128 27.4779 80.1842 28.4378C80.0014 29.1692 79.8186 29.9006 79.6814 30.6319C79.59 31.2262 79.6357 31.8204 79.5443 32.4146C79.4529 32.9632 79.3615 33.466 79.1329 33.9688C78.8129 34.7002 78.4015 35.4316 77.8987 36.0715C77.6245 36.4372 77.3045 36.8486 76.8931 37.1228C76.5731 37.3514 76.2074 37.5342 75.796 37.6257C75.4761 37.6714 75.1561 37.6257 74.8818 37.4885C74.6076 37.3971 74.379 37.1686 74.1505 36.9857C73.8762 36.6657 73.6019 36.3001 73.4648 35.8429C73.2362 35.1116 73.2819 34.2888 73.3277 33.5117C73.3277 32.4604 73.5562 31.409 73.6476 30.4034C73.7391 29.3063 73.8762 28.255 73.7848 27.1579C73.6933 26.2894 73.5562 25.3752 73.2362 24.5981C72.8706 23.7753 72.3677 22.9983 71.7278 22.404C71.225 21.9012 70.5393 21.5812 69.8994 21.2613C69.0766 20.8956 68.1624 20.6213 67.2481 20.5756C66.3796 20.5299 65.4654 20.6213 64.5969 20.8956C63.9113 21.1241 63.2256 21.4441 62.6314 21.8555C62.22 22.1298 61.8543 22.4954 61.4886 22.8611C61.1686 23.1811 60.6201 23.8668 60.6201 23.8668C60.6201 23.8668 60.5744 23.044 60.5744 22.6783C60.5744 22.1755 60.6201 21.2155 60.6201 21.2155L55.4091 22.3583C55.4091 22.3583 55.4091 24.5067 55.4091 25.7866C55.4091 27.7979 55.6833 30.2205 55.4548 32.2318C55.4091 32.6432 55.3177 33.0546 55.1348 33.4203C54.8148 34.1517 53.9006 35.523 53.9006 35.523C53.9006 35.523 53.0321 36.5286 52.4836 36.8943C52.1179 37.1228 51.7522 37.3514 51.3408 37.3971C50.8837 37.4428 50.3809 37.3514 49.9695 37.1228C49.5124 36.8486 49.2382 36.3458 49.0553 35.8887C48.781 35.203 48.7353 34.4716 48.6439 33.7403C48.5525 32.8718 48.6439 31.9575 48.6896 31.089C48.6896 30.8148 48.7353 30.2662 48.7353 30.2662L43.2501 31.2262C43.2501 31.2262 43.2501 32.5975 43.1129 33.2374C42.9758 33.8317 42.7015 34.3802 42.3815 34.9287C42.0159 35.523 41.6045 36.1172 41.0559 36.5743C40.5531 37.0314 40.0046 37.4428 39.3646 37.6257C38.8618 37.7628 38.2676 37.7628 37.7648 37.6714C37.1705 37.5342 36.5763 37.3057 36.1649 36.8486C35.6621 36.3458 35.3878 35.6601 35.1136 34.9744C34.885 34.2888 34.7479 33.6031 34.7022 32.8718C34.6565 32.0033 34.7022 31.089 34.9307 30.2662C35.1593 29.4892 35.525 28.8035 36.0278 28.1636C36.5306 27.4779 37.1705 26.7922 37.9019 26.3351C38.4504 25.9694 39.1361 25.7409 39.776 25.6495C40.3246 25.5581 40.8731 25.6038 41.3759 25.7409C41.833 25.8323 42.3358 26.0152 42.7015 26.3351C42.9758 26.5637 43.3872 27.0208 43.6614 27.3865C43.89 27.7064 44.2557 28.3921 44.2557 28.3921L48.4154 25.2838C48.4154 25.2838 47.6383 24.141 47.1355 23.6382C46.267 22.7697 45.3985 21.8555 44.3014 21.307C43.2501 20.8041 42.153 20.667 40.8274 20.5756C39.6846 20.5299 38.4961 20.6213 37.3991 20.987C36.0735 21.3984 34.7936 22.1755 33.6965 23.044C32.7823 23.7753 32.0509 24.6438 31.411 25.6038C30.9082 26.3351 30.5882 27.1122 30.2682 27.935C29.9483 28.7121 29.5826 29.5349 29.3997 30.3577C29.1712 31.1805 29.034 32.049 28.9883 32.8718C28.9426 33.8317 29.034 34.7916 29.1712 35.7515C29.3083 36.5286 29.4911 37.26 29.8568 37.9456C30.2682 38.7227 30.8168 39.4541 31.3653 40.094C31.8681 40.6426 32.3709 41.2368 33.0109 41.6482C33.6508 42.0596 34.4279 42.3796 35.1593 42.5624C36.0735 42.8367 37.0334 43.0195 37.9933 42.9738C38.999 42.9281 40.0046 42.5624 40.9188 42.1967C41.7873 41.8768 42.6101 41.4196 43.3415 40.8711C43.7986 40.5054 44.53 39.6369 44.53 39.6369L45.0328 40.5969C45.0328 40.5969 45.6727 41.4196 46.0841 41.7396C46.5412 42.1053 47.1355 42.3796 47.684 42.5624C48.4154 42.791 49.2381 42.8367 50.0152 42.8367C50.7923 42.8367 51.5694 42.791 52.3008 42.5624C52.895 42.3796 53.4435 42.0596 53.9463 41.7396C54.4035 41.4196 55.272 40.6426 55.272 40.6426L55.4091 40.5511L55.4548 42.5167L55.6833 42.6995H60.8029C60.8029 42.6995 60.7572 40.094 60.8029 38.8141C60.8487 37.5342 60.8486 36.3001 60.9858 35.0202C61.0772 34.0602 61.2143 33.1003 61.4429 32.1861C61.6714 31.1805 61.9914 30.4491 62.3571 29.672C62.6771 28.9864 63.0885 28.1636 63.5456 27.6607C63.8656 27.2951 64.2312 26.9294 64.6883 26.6551C65.0083 26.4266 65.3283 26.198 65.694 26.1523C66.0597 26.1066 66.3796 26.2437 66.6996 26.4266C67.0653 26.6551 67.3396 26.9751 67.5224 27.3408C67.7967 27.7979 67.9795 28.8035 67.9795 28.8035C67.9795 28.8035 67.9795 30.6319 67.9795 31.5461C67.9338 32.9632 67.751 34.3345 67.7967 35.7515C67.7967 36.5286 67.8424 37.3057 68.0252 38.0371C68.2538 38.8141 68.528 39.6369 68.9851 40.3226C69.3508 40.8711 69.8079 41.3739 70.3108 41.7853C70.905 42.2424 71.5907 42.6538 72.322 42.8824C73.2819 43.2024 74.2876 43.3395 75.2932 43.2938C76.1617 43.2481 77.0302 43.0195 77.8073 42.7453C78.5387 42.471 79.2243 42.0596 79.91 41.6482C80.3214 41.3739 80.7328 41.054 81.0985 40.6883C81.4641 40.3226 82.0584 39.4998 82.0584 39.4998L82.1955 39.1341L82.3784 39.2712C82.3784 39.2712 83.0183 40.0026 83.384 40.3226C83.9325 40.8254 84.5268 41.3282 85.1667 41.7396C85.8524 42.151 86.5837 42.4253 87.3608 42.6538C88.275 42.9281 89.1892 43.1109 90.1492 43.1567C91.1548 43.2024 92.069 43.2024 92.9832 43.0652C93.9889 42.9281 94.9488 42.6081 95.9087 42.2881C96.7315 42.0139 97.6457 41.6939 98.3314 41.3282C98.8342 41.054 99.7484 40.3226 99.7484 40.3226L100.023 40.0026L100.206 40.2769L100.114 42.5167L100.251 42.5624L105.462 42.6081L105.599 42.2881C105.599 42.2881 105.417 39.8198 105.417 38.5856C105.417 37.3971 105.417 36.2086 105.599 35.0202C105.737 34.0602 106.056 33.0546 106.376 32.1404C106.559 31.5461 106.742 30.9519 107.108 30.4034C107.428 29.9463 107.839 29.5349 108.296 29.2149C108.662 28.9406 109.119 28.8035 109.576 28.7121C110.033 28.6207 110.536 28.5292 110.948 28.7121C111.359 28.8949 111.679 29.3063 111.907 29.672C112.09 29.9463 112.182 30.312 112.273 30.6319C112.41 31.1348 112.456 31.6376 112.41 32.1404C112.41 32.9175 112.136 33.6488 112.09 34.4259C112.045 35.0659 111.999 35.7515 112.045 36.3915C112.09 37.0771 112.182 37.7628 112.41 38.4027C112.685 39.1798 113.004 40.0026 113.553 40.6426C114.01 41.2368 114.65 41.6482 115.29 42.0596C115.884 42.4253 116.524 42.791 117.21 42.9281C118.033 43.1109 118.901 43.1566 119.724 43.0652C120.547 42.9738 121.324 42.6995 122.101 42.3796C122.787 42.0596 123.472 41.6939 124.066 41.1911C124.524 40.7797 125.209 39.7284 125.209 39.7284L125.438 39.4084L125.758 40.1397C125.758 40.1397 126.535 41.0997 127.038 41.4654C127.723 41.9682 128.5 42.3339 129.277 42.6081C130.1 42.8824 131.014 42.9281 131.883 43.0195C132.706 43.0652 133.574 43.1109 134.397 42.9738C135.403 42.8367 136.408 42.5167 137.323 42.1053C138.237 41.6482 139.105 41.054 139.837 40.3683C140.522 39.7284 141.162 38.997 141.665 38.2199C142.305 37.2143 142.808 36.1172 143.128 34.9744C143.448 33.9688 143.493 32.8718 143.585 31.8204C143.631 31.089 143.768 30.312 143.676 29.5806C143.539 28.575 143.493 27.7064 143.174 26.8379C142.854 26.0152 142.259 25.1467 141.802 24.5067C141.162 23.5925 140.294 22.8611 139.38 22.1755C138.694 21.6726 138.1 21.3984 137.414 21.1241C136.728 20.8499 135.86 20.7127 135.22 20.6213C134.169 20.5299 133.071 20.4385 132.02 20.5756C131.06 20.7127 130.1 20.9413 129.232 21.3984C128.318 21.8555 127.54 22.5869 126.809 23.3182C126.078 24.0496 125.392 24.8724 124.844 25.7409C124.295 26.6551 123.746 27.5693 123.427 28.575C123.152 29.3977 123.107 30.2662 123.015 31.1347C122.969 31.729 123.061 32.3232 123.015 32.9175C122.969 33.2831 122.924 33.6945 122.787 34.0602C122.558 34.6545 122.238 35.2487 121.827 35.7972C121.415 36.3458 120.912 36.8486 120.364 37.26C120.09 37.4428 119.77 37.7171 119.45 37.7628C119.13 37.8085 118.81 37.7171 118.581 37.5799C118.261 37.3971 118.033 37.1228 117.85 36.8029C117.53 36.2086 117.484 35.4773 117.438 34.7916C117.393 33.786 117.576 32.826 117.667 31.8204C117.758 31.1347 117.987 30.4491 117.987 29.7177C117.987 28.9863 117.941 28.255 117.758 27.615C117.53 26.9294 117.21 26.3351 116.753 25.7866C116.25 25.1467 115.656 24.5981 114.97 24.1867C114.376 23.821 113.644 23.5925 112.959 23.4096C112.182 23.2725 111.405 23.2268 110.628 23.2725C110.079 23.3182 109.53 23.4097 109.028 23.5925C108.479 23.7753 108.022 24.0953 107.565 24.4153C107.199 24.6438 106.559 25.1467 106.559 25.1467L105.691 26.1066L105.782 24.461L105.874 22.3583C105.874 22.3583 107.199 21.9469 107.839 21.7641C109.028 21.3984 110.262 21.1241 111.405 20.5756C112.685 19.9356 113.873 19.2043 114.924 18.2443C115.747 17.5587 116.433 16.6902 117.027 15.8217C117.53 15.0446 117.941 14.1761 118.17 13.2619C118.353 12.3477 118.398 11.3878 118.261 10.5192C118.078 9.60504 117.758 8.69082 117.164 7.95945C116.661 7.3195 115.839 6.90811 115.107 6.49671C114.559 6.22245 114.01 5.94819 113.416 5.81105C112.867 5.49108 112.365 5.39966 111.862 5.39966Z" fill="white"/>
<path d="M62.9512 54.0814L63.454 61.3951L64.9624 61.0752L64.8253 58.1954L67.7965 58.0126L67.9336 57.7383L67.8422 56.5955L64.6425 56.6412L64.551 55.3613L67.7508 55.2699L67.6594 53.7615L62.9512 54.0814Z" fill="white"/>
<path d="M75.0189 55.2241L76.2074 57.464L74.1504 57.5554L75.0189 55.2241ZM75.6588 53.03L73.8761 53.1214L71.7734 60.298H72.002L73.5104 60.2066L73.8761 59.0638L76.7102 58.9267L77.3501 59.9323L78.9957 59.7952L75.6588 53.03Z" fill="white"/>
<path d="M82.2869 52.6644L82.5154 59.841L84.3438 59.7953L84.161 55.3156L85.898 59.7039H86.7665L88.5492 55.1785L88.5949 59.7039L90.3319 59.7496L90.2862 52.7101L88.0464 52.6644L86.4008 56.687L84.8467 52.7101L82.2869 52.6644Z" fill="white"/>
<path d="M94.9487 52.7556L94.8115 59.6579L94.8572 59.8408L96.5028 59.9779L96.8228 52.8927L94.9487 52.7556Z" fill="white"/>
<path d="M101.577 52.9841L101.074 60.2521L105.736 60.5721L105.828 58.9722L102.857 58.698L103.222 53.1213L101.577 52.9841Z" fill="white"/>
<path d="M108.616 53.67L110.81 57.784L110.353 60.8466L111.999 61.1209L112.41 58.104L115.473 54.63L115.61 54.4471L113.69 54.0814L111.907 56.5498L110.582 53.8072L108.616 53.67Z" fill="white"/>
</svg>
