<svg width="24" height="24" viewBox="0 0 24 24" fill="none" xmlns="http://www.w3.org/2000/svg">
<path fill-rule="evenodd" clip-rule="evenodd" d="M17.9745 4H0L6.58723 19.3191H24L17.9745 4ZM12.766 17.0213C10.5191 17.0213 8.68085 15.183 8.68085 12.9362C8.68085 10.6894 10.5191 8.85106 12.766 8.85106C15.0128 8.85106 16.8511 10.6894 16.8511 12.9362C16.8511 15.183 15.0128 17.0213 12.766 17.0213ZM17.1064 7.57447H3.31915V6.55319H17.1064V7.57447ZM12.3064 13.0383L11.5915 12.3745L10.8766 13.0894L12.3064 14.5192L14.6553 12.0681L13.9404 11.3532L12.3064 13.0383ZM0.255319 19.3192H6.02553L0.255319 5.88937V19.3192Z" fill="white"/>
</svg>
